<?xml version="1.0" encoding="UTF-8"?>
<svg width="699px" height="700px" viewBox="0 0 699 700" version="1.1" xmlns="http://www.w3.org/2000/svg" xmlns:xlink="http://www.w3.org/1999/xlink">
    <title>Group</title>
    <defs>
        <linearGradient x1="7.71266989%" y1="-10.0867417%" x2="75.1781205%" y2="93.5344191%" id="linearGradient-1">
            <stop stop-color="#464646" offset="0%"></stop>
            <stop stop-color="#FF7B23" offset="100%"></stop>
        </linearGradient>
        <linearGradient x1="22.9646756%" y1="-10.0867417%" x2="66.0969882%" y2="93.5344191%" id="linearGradient-2">
            <stop stop-color="#464646" offset="0%"></stop>
            <stop stop-color="#FF7B23" offset="100%"></stop>
        </linearGradient>
    </defs>
    <g id="Page-1" stroke="none" stroke-width="1" fill="none" fill-rule="evenodd">
        <g id="safari-pinned-tab" transform="translate(0.000000, -0.000000)" fill-rule="nonzero">
            <g id="Group" transform="translate(349.469423, 349.581182) scale(-1, 1) rotate(-180.000000) translate(-349.469423, -349.581182) translate(0.000000, 0.000000)">
                <path d="M327.337677,699.062684 C327.237677,698.862684 323.137677,698.462684 318.437677,698.062684 C313.737677,697.662684 308.937677,697.262684 307.837677,697.062684 C306.737677,696.762684 303.437677,696.362684 300.437677,695.962684 C269.137677,692.162684 229.537677,680.162684 198.037677,664.862684 C180.037677,656.162684 153.237677,640.162684 142.537677,631.762684 C141.737677,631.162684 137.437677,627.762684 133.037677,624.362684 C97.7376769,596.862684 65.7376769,559.262684 43.3376769,518.962684 C38.4376769,510.262684 28.5376769,490.062684 28.5376769,488.862684 C28.5376769,488.662684 27.6376769,486.562684 26.5376769,484.162684 C20.8376769,471.862684 10.8376769,440.662684 7.9376769,425.962684 C7.7376769,424.862684 6.9376769,420.562684 6.0376769,416.462684 C3.8376769,404.962684 3.0376769,400.462684 1.9376769,390.962684 C-0.662323103,367.962684 -0.662323103,324.262684 2.0376769,308.362684 C2.2376769,307.062684 2.6376769,303.762684 2.9376769,300.962684 C3.8376769,293.162684 5.1376769,285.762684 8.0376769,272.462684 C10.1376769,262.862684 17.1376769,238.562684 19.4376769,232.962684 C19.9376769,231.862684 21.9376769,226.462684 24.0376769,220.962684 C30.3376769,204.362684 48.9376769,167.862684 55.2376769,159.962684 C55.6376769,159.362684 58.6376769,155.062684 61.7376769,150.462684 C78.7376769,124.962684 105.037677,96.9626838 132.537677,74.9626838 C141.737677,67.5626838 169.537677,48.4626838 171.137677,48.4626838 C171.537677,48.4626838 172.637677,47.8626838 173.437677,47.0626838 C178.037677,43.0626838 214.737677,25.8626838 230.537677,20.2626838 C238.837677,17.3626838 257.337677,11.5626838 259.837677,11.0626838 C261.037677,10.8626838 265.837677,9.76268384 270.537677,8.66268384 C281.437677,5.96268384 290.537677,4.26268384 300.437677,2.86268384 C302.937677,2.56268384 306.137677,2.06268384 307.537677,1.86268384 C323.837677,-0.637316165 375.737677,-0.637316165 391.737677,1.96268384 C393.037677,2.16268384 396.337677,2.66268384 399.037677,2.96268384 C406.137677,3.96268384 407.737677,4.26268384 410.537677,4.76268384 C411.937677,5.06268384 414.837677,5.56268384 417.037677,5.96268384 C419.237677,6.36268384 424.637677,7.56268384 429.037677,8.66268384 C433.437677,9.66268384 437.737677,10.7626838 438.637677,10.9626838 C441.137677,11.4626838 454.337677,15.4626838 460.537677,17.4626838 C478.337677,23.1626838 517.337677,40.9626838 526.537677,47.4626838 C528.037677,48.5626838 529.837677,49.4626838 530.437677,49.4626838 C531.037677,49.4626838 531.537677,49.9626838 531.537677,50.4626838 C531.537677,51.0626838 532.037677,51.4626838 532.537677,51.4626838 C534.037677,51.4626838 554.537677,65.5626838 565.537677,74.1626838 C580.737677,85.9626838 597.937677,102.162684 610.537677,116.362684 C614.137677,120.462684 617.537677,124.262684 618.137677,124.862684 C618.737677,125.462684 622.937677,130.962684 627.537677,136.962684 C642.737677,156.962684 655.137677,177.262684 666.337677,200.762684 C669.237677,206.662684 671.537677,211.762684 671.537677,212.062684 C671.537677,212.362684 672.337677,214.462684 673.437677,216.762684 C678.737677,228.562684 688.137677,258.462684 691.137677,272.962684 C692.837677,281.062684 696.537677,303.062684 697.037677,307.962684 C697.437677,311.262684 697.937677,315.062684 698.137677,316.462684 C699.037677,321.162684 699.237677,368.962684 698.437677,376.962684 C696.937677,393.462684 696.337677,398.962684 696.037677,399.462684 C695.837677,399.762684 695.437677,402.462684 695.037677,405.462684 C694.637677,408.462684 692.837677,417.762684 691.037677,425.962684 C685.737677,449.162684 680.837677,464.462684 671.337677,486.962684 C629.137677,586.262684 540.937677,662.162684 436.737677,688.362684 C424.637677,691.462684 412.337677,694.062684 405.537677,694.962684 C403.637677,695.262684 400.937677,695.662684 399.537677,695.962684 C398.237677,696.162684 394.337677,696.662684 390.937677,697.062684 C387.637677,697.362684 383.537677,697.862684 381.937677,698.062684 C378.737677,698.562684 327.937677,699.462684 327.337677,699.062684 Z M330.537677,537.962684 C351.937677,537.462684 367.637677,536.762684 371.537677,536.162684 C373.737677,535.762684 376.237677,535.462684 387.037677,533.962684 C390.337677,533.462684 392.637677,533.062684 400.037677,531.462684 C415.937677,528.062684 424.137677,525.962684 424.637677,525.162684 C424.937677,524.662684 425.537677,524.362684 425.937677,524.562684 C427.137677,524.962684 441.537677,520.162684 441.537677,519.262684 C441.537677,518.862684 442.137677,518.462684 442.837677,518.462684 C443.437677,518.462684 447.637677,516.662684 452.037677,514.462684 C456.437677,512.262684 460.837677,510.462684 461.837677,510.462684 C462.737677,510.462684 463.537677,510.062684 463.537677,509.462684 C463.537677,508.962684 464.237677,508.462684 465.037677,508.462684 C465.837677,508.462684 466.537677,508.062684 466.537677,507.662684 C466.537677,507.162684 468.337677,505.962684 470.537677,504.962684 C472.737677,503.962684 474.537677,502.762684 474.537677,502.362684 C474.537677,501.962684 475.337677,501.362684 476.337677,501.062684 C477.237677,500.762684 479.437677,499.262684 481.137677,497.762684 C482.737677,496.162684 485.937677,493.662684 488.137677,491.962684 C493.437677,487.962684 510.537677,470.862684 510.537677,469.562684 C510.537677,468.962684 511.037677,468.462684 511.537677,468.462684 C512.137677,468.462684 512.537677,467.962684 512.537677,467.362684 C512.537677,466.662684 513.537677,465.162684 514.837677,464.062684 C517.337677,461.562684 518.537677,459.762684 521.637677,453.962684 C522.837677,451.762684 524.337677,449.662684 524.937677,449.262684 C525.537677,448.862684 525.637677,448.462684 525.137677,448.462684 C524.637677,448.462684 524.937677,447.662684 525.737677,446.762684 C527.537677,444.562684 531.537677,436.262684 531.537677,434.662684 C531.537677,433.962684 531.937677,433.462684 532.437677,433.462684 C532.937677,433.462684 533.737677,431.962684 534.037677,430.262684 C534.437677,428.462684 535.337677,426.262684 536.037677,425.462684 C536.737677,424.662684 537.737677,421.962684 538.437677,419.462684 C539.137677,416.962684 539.737677,414.562684 539.937677,413.962684 C540.037677,413.462684 540.837677,410.262684 541.537677,406.962684 C542.337677,403.662684 542.937677,400.762684 543.037677,400.462684 C546.337677,387.062684 547.637677,374.562684 547.737677,354.962684 C547.837677,344.162684 547.037677,330.462684 546.037677,324.362684 C545.637677,321.962684 545.137677,318.062684 545.037677,315.862684 C544.837677,313.562684 544.437677,310.762684 544.137677,309.662684 C543.737677,308.562684 543.237677,306.762684 543.037677,305.762684 C542.837677,304.762684 541.937677,302.162684 541.137677,299.962684 C540.337677,297.762684 539.637677,295.062684 539.537677,293.862684 C539.537677,292.762684 539.137677,291.462684 538.537677,290.862684 C538.037677,290.362684 537.437677,289.062684 537.237677,287.962684 C537.037677,286.862684 536.437677,285.062684 535.837677,283.962684 C535.237677,282.862684 534.237677,280.262684 533.637677,278.262684 C532.937677,276.162684 532.037677,274.462684 531.637677,274.462684 C531.237677,274.462684 530.337677,272.762684 529.737677,270.562684 C529.037677,268.462684 527.837677,266.162684 527.037677,265.462684 C526.237677,264.762684 525.537677,263.562684 525.537677,262.862684 C525.537677,262.062684 525.137677,261.462684 524.637677,261.462684 C524.137677,261.462684 523.337677,260.462684 522.937677,259.262684 C522.537677,257.962684 520.937677,255.362684 519.437677,253.462684 C517.837677,251.562684 516.537677,249.462684 516.537677,248.762684 C516.537677,248.062684 516.137677,247.462684 515.637677,247.462684 C515.237677,247.462684 513.637677,245.662684 512.137677,243.462684 C509.237677,239.062684 506.837677,236.262684 498.337677,227.462684 C495.137677,224.162684 492.137677,221.462684 491.637677,221.462684 C491.037677,221.462684 490.237677,220.862684 489.837677,220.062684 C489.037677,218.762684 477.937677,209.462684 477.137677,209.462684 C476.837677,209.462684 475.137677,208.062684 473.337677,206.462684 C471.537677,204.862684 469.337677,203.462684 468.337677,203.462684 C467.437677,203.462684 466.237677,202.862684 465.837677,202.162684 C465.437677,201.362684 463.137677,199.962684 460.837677,198.962684 C458.437677,197.862684 456.537677,196.762684 456.537677,196.462684 C456.537677,196.062684 454.037677,194.762684 451.037677,193.562684 C448.037677,192.262684 445.537677,190.862684 445.537677,190.462684 C445.537677,189.962684 444.037677,189.262684 442.337677,188.962684 C440.537677,188.562684 438.437677,187.762684 437.737677,187.162684 C436.937677,186.562684 435.337677,185.862684 434.237677,185.762684 C433.037677,185.562684 431.837677,184.962684 431.737677,184.462684 C431.537677,183.862684 430.937677,183.662684 430.437677,183.962684 C429.937677,184.262684 428.537677,183.962684 427.337677,183.262684 C426.037677,182.562684 424.837677,181.962684 424.537677,181.962684 C419.637677,180.762684 417.537677,180.062684 415.337677,178.862684 C413.737677,178.062684 412.537677,177.562684 412.537677,177.962684 C412.537677,178.262684 410.937677,177.762684 408.937677,176.962684 C406.937677,176.162684 404.237677,175.462684 403.037677,175.462684 C401.737677,175.462684 397.937677,174.762684 394.537677,173.862684 C391.137677,173.062684 387.237677,172.162684 385.737677,171.962684 C384.237677,171.762684 382.937677,171.562684 382.837677,171.362684 C380.037677,169.262684 353.837677,168.362684 299.537677,168.562684 C238.337677,168.762684 231.337677,168.962684 228.837677,170.262684 C227.537677,170.962684 226.537677,171.262684 226.537677,170.862684 C226.537677,170.462684 225.637677,170.962684 224.537677,171.962684 C223.437677,172.962684 221.537677,174.262684 220.437677,174.862684 C219.237677,175.462684 218.337677,176.362684 218.437677,176.762684 C218.537677,177.162684 217.537677,178.962684 216.137677,180.562684 C214.637677,182.262684 213.537677,184.462684 213.537677,185.462684 C213.537677,186.462684 213.237677,187.562684 212.837677,187.762684 C212.337677,188.062684 212.037677,262.762684 212.037677,353.762684 L212.137677,519.162684 L215.437677,524.562684 C217.237677,527.662684 220.937677,531.562684 223.837677,533.762684 C228.337677,537.062684 229.637677,537.462684 235.037677,537.562684 C238.337677,537.562684 243.037677,537.962684 245.537677,538.262684 C250.237677,538.962684 296.537677,538.862684 330.537677,537.962684 Z" id="Shape" fill="url(#linearGradient-1)"></path>
                <path d="M299.337677,461.462684 C295.437677,459.662684 291.537677,456.062684 289.737677,452.562684 C287.937677,449.062684 287.437677,426.662684 287.537677,363.462684 C287.637677,334.562684 287.637677,305.762684 287.537677,299.462684 C287.237677,274.262684 287.337677,262.862684 287.737677,261.462684 C288.037677,260.662684 288.537677,258.662684 289.037677,256.962684 C290.237677,252.562684 293.337677,248.462684 295.037677,249.162684 C296.037677,249.462684 296.537677,248.962684 296.537677,247.562684 C296.537677,246.362684 296.837677,245.362684 297.337677,245.362684 C297.737677,245.262684 298.937677,245.062684 300.037677,244.762684 C307.337677,243.362684 323.737677,242.562684 329.037677,243.362684 C332.337677,243.962684 338.237677,244.362684 342.137677,244.362684 C349.637677,244.362684 363.637677,245.462684 364.637677,246.062684 C364.937677,246.262684 368.737677,246.662684 373.137677,247.062684 C377.437677,247.462684 381.237677,248.062684 381.537677,248.462684 C381.837677,248.862684 385.437677,249.962684 389.537677,250.962684 C393.637677,251.962684 398.037677,253.462684 399.237677,254.162684 C400.437677,254.962684 401.737677,255.562684 402.037677,255.462684 C402.737677,255.362684 413.837677,260.562684 414.537677,261.462684 C414.837677,261.762684 416.237677,262.562684 417.737677,263.162684 C420.137677,264.262684 422.837677,266.362684 428.637677,271.762684 C429.637677,272.662684 430.937677,273.462684 431.437677,273.462684 C431.937677,273.462684 433.437677,274.962684 434.837677,276.762684 C436.137677,278.462684 438.337677,281.062684 439.737677,282.462684 C443.637677,286.462684 449.537677,296.062684 454.537677,306.462684 C455.537677,308.562684 460.537677,324.462684 461.137677,327.462684 C462.937677,336.862684 463.637677,357.262684 462.437677,366.562684 C462.037677,370.262684 461.437677,375.462684 461.137677,378.062684 C460.837677,380.762684 460.137677,384.762684 459.537677,386.962684 C458.937677,389.162684 458.337677,391.462684 458.237677,391.962684 C458.037677,392.562684 456.537677,396.062684 454.737677,399.862684 C452.937677,403.562684 451.537677,407.062684 451.537677,407.562684 C451.537677,408.062684 451.037677,408.462684 450.437677,408.462684 C449.937677,408.462684 449.737677,408.962684 450.037677,409.462684 C450.337677,410.062684 450.237677,410.462684 449.637677,410.462684 C449.137677,410.462684 448.337677,411.362684 448.037677,412.462684 C447.737677,413.562684 446.837677,415.062684 446.237677,415.762684 C445.537677,416.462684 443.537677,419.062684 441.637677,421.462684 C439.737677,423.962684 436.337677,427.562684 434.137677,429.462684 C431.837677,431.362684 428.837677,434.262684 427.337677,435.862684 C425.737677,437.362684 424.537677,438.362684 424.537677,437.862684 C424.537677,437.462684 423.937677,437.862684 423.337677,438.762684 C421.937677,440.462684 406.837677,448.462684 404.837677,448.462684 C404.137677,448.462684 403.237677,449.062684 402.837677,449.762684 C402.137677,450.762684 397.837677,452.862684 394.037677,453.862684 C393.537677,454.062684 392.337677,454.462684 391.537677,454.762684 C390.737677,455.162684 389.137677,455.562684 388.037677,455.762684 C386.937677,455.962684 385.337677,456.462684 384.537677,456.762684 C383.737677,457.062684 380.837677,457.862684 378.037677,458.462684 C373.437677,459.562684 371.837677,459.962684 366.037677,460.862684 C364.937677,461.062684 364.037677,461.262684 364.037677,461.362684 C364.037677,462.062684 348.937677,462.562684 327.337677,462.762684 C307.037677,462.962684 302.037677,462.662684 299.337677,461.462684 Z" id="Path" fill="url(#linearGradient-2)"></path>
            </g>
        </g>
    </g>
</svg>